<svg id="visual" viewBox="0 0 2560 1440" width="2560" height="1440" xmlns="http://www.w3.org/2000/svg" xmlns:xlink="http://www.w3.org/1999/xlink" version="1.1"><rect x="0" y="0" width="2560" height="1440" fill="#001220"></rect><path d="M0 925L61 911.5C122 898 244 871 365.8 890.2C487.7 909.3 609.3 974.7 731.2 1012C853 1049.3 975 1058.7 1097 1040.8C1219 1023 1341 978 1463 971.7C1585 965.3 1707 997.7 1828.8 1013.7C1950.7 1029.7 2072.3 1029.3 2194.2 1003.8C2316 978.3 2438 927.7 2499 902.3L2560 877L2560 1441L2499 1441C2438 1441 2316 1441 2194.2 1441C2072.3 1441 1950.7 1441 1828.8 1441C1707 1441 1585 1441 1463 1441C1341 1441 1219 1441 1097 1441C975 1441 853 1441 731.2 1441C609.3 1441 487.7 1441 365.8 1441C244 1441 122 1441 61 1441L0 1441Z" fill="#fa7268"></path><path d="M0 1116L61 1100.2C122 1084.3 244 1052.7 365.8 1028.5C487.7 1004.3 609.3 987.7 731.2 982.2C853 976.7 975 982.3 1097 996.3C1219 1010.3 1341 1032.7 1463 1036.2C1585 1039.7 1707 1024.3 1828.8 1014.3C1950.7 1004.3 2072.3 999.7 2194.2 989.8C2316 980 2438 965 2499 957.5L2560 950L2560 1441L2499 1441C2438 1441 2316 1441 2194.2 1441C2072.3 1441 1950.7 1441 1828.8 1441C1707 1441 1585 1441 1463 1441C1341 1441 1219 1441 1097 1441C975 1441 853 1441 731.2 1441C609.3 1441 487.7 1441 365.8 1441C244 1441 122 1441 61 1441L0 1441Z" fill="#ef5f67"></path><path d="M0 1147L61 1158.3C122 1169.7 244 1192.3 365.8 1181.7C487.7 1171 609.3 1127 731.2 1123C853 1119 975 1155 1097 1170.5C1219 1186 1341 1181 1463 1179C1585 1177 1707 1178 1828.8 1186.8C1950.7 1195.7 2072.3 1212.3 2194.2 1200.3C2316 1188.3 2438 1147.7 2499 1127.3L2560 1107L2560 1441L2499 1441C2438 1441 2316 1441 2194.2 1441C2072.3 1441 1950.7 1441 1828.8 1441C1707 1441 1585 1441 1463 1441C1341 1441 1219 1441 1097 1441C975 1441 853 1441 731.2 1441C609.3 1441 487.7 1441 365.8 1441C244 1441 122 1441 61 1441L0 1441Z" fill="#e34c67"></path><path d="M0 1273L61 1271.5C122 1270 244 1267 365.8 1266.8C487.7 1266.7 609.3 1269.3 731.2 1273.2C853 1277 975 1282 1097 1263.8C1219 1245.7 1341 1204.3 1463 1189.5C1585 1174.7 1707 1186.3 1828.8 1185.3C1950.7 1184.3 2072.3 1170.7 2194.2 1164.3C2316 1158 2438 1159 2499 1159.5L2560 1160L2560 1441L2499 1441C2438 1441 2316 1441 2194.2 1441C2072.3 1441 1950.7 1441 1828.8 1441C1707 1441 1585 1441 1463 1441C1341 1441 1219 1441 1097 1441C975 1441 853 1441 731.2 1441C609.3 1441 487.7 1441 365.8 1441C244 1441 122 1441 61 1441L0 1441Z" fill="#d53867"></path><path d="M0 1347L61 1334.2C122 1321.3 244 1295.7 365.8 1285C487.7 1274.3 609.3 1278.7 731.2 1291.7C853 1304.7 975 1326.3 1097 1330.3C1219 1334.3 1341 1320.7 1463 1317.8C1585 1315 1707 1323 1828.8 1332.2C1950.7 1341.3 2072.3 1351.7 2194.2 1339.7C2316 1327.7 2438 1293.3 2499 1276.2L2560 1259L2560 1441L2499 1441C2438 1441 2316 1441 2194.2 1441C2072.3 1441 1950.7 1441 1828.8 1441C1707 1441 1585 1441 1463 1441C1341 1441 1219 1441 1097 1441C975 1441 853 1441 731.2 1441C609.3 1441 487.7 1441 365.8 1441C244 1441 122 1441 61 1441L0 1441Z" fill="#c62368"></path></svg>